<svg width="128" height="128" viewBox="0 0 128 128" fill="none" xmlns="http://www.w3.org/2000/svg">
<path d="M13.91 89.87C13.91 89.87 12.95 96.15 15.18 101.69C17.04 106.33 21.86 112.44 31.08 117.1C40.3 121.76 50.89 123.4 66.52 123.72C82.15 124.05 98.21 120.4 105.92 113.63C113.64 106.85 116.34 101.15 116.12 94.96C115.9 88.77 112.61 86.42 112.61 86.42L13.91 89.87V89.87Z" fill="#FCB745"/>
<path d="M18.38 83.56L13.82 88.12C13.82 88.12 12.58 94.22 19.46 100.82C24.67 105.81 33.89 114.48 64.51 114.71C93.17 114.93 102.18 108.63 107.71 104.18C113.25 99.73 115.33 92 114.78 89.83C114.24 87.66 112.54 86.41 112.54 86.41L18.38 83.56V83.56Z" fill="#E78B20"/>
<path d="M20.33 90.07C20.33 90.07 19.04 92.26 19.46 93.65C19.79 94.74 20.44 99.19 33.35 104.83C40.18 107.82 51.8 110.26 66.89 109.82C84.79 109.3 99.13 105.7 106.07 99.18C113.18 92.51 111.82 88.54 111.82 88.54L20.33 90.07V90.07Z" fill="#FFD290"/>
<path d="M16.64 74.87C16.64 74.87 12.36 79.23 11.65 81.17C10.98 83 11.07 85.66 12.25 87.81C13.84 90.69 15.82 90.99 18.27 92.46C20.92 94.04 25.11 98.97 35.42 101.14C45.73 103.31 59.3 104.29 66.57 104.29C73.84 104.29 83.5 104.18 92.51 101.14C101.52 98.1 111.83 92.13 114.22 86.81C116.61 81.49 114.33 78.34 114.33 78.34L109.12 74.87H16.64V74.87Z" fill="#6D544D"/>
<path d="M14.14 69.34C14.14 69.34 10.82 69.19 10.02 74.22C9.44 77.88 12.08 80.19 12.08 80.19C12.08 80.19 10.68 82.2 12.3 84.75C13.82 87.14 15.45 87.68 18.81 88.22C21.23 88.61 22.5 87.89 25.65 89.63C29.6 91.81 31.29 95.71 36.72 96.9C42.15 98.09 48.23 97.01 48.44 96.14C48.65 95.27 40.84 92.02 26.73 84.09C21.97 81.42 17.61 77.79 16.42 75.95C15.23 74.11 14.14 69.34 14.14 69.34V69.34ZM82.42 95.82C82.42 97.23 87.09 96.58 89.26 95.39C91.43 94.2 94.9 91.16 98.05 89.85C101.2 88.55 102.39 89.74 106.95 87.57C111.51 85.4 114.01 80.3 114.01 80.3C114.01 80.3 116.23 77.56 116.41 75.64C116.69 72.71 116.4 71.29 114.34 70.64C112.28 69.99 107.79 76.74 107.14 77.5C106.49 78.26 96.87 85.29 93.07 88C89.27 90.71 82.42 95.06 82.42 95.82V95.82Z" fill="#9B7169"/>
<path d="M18.38 65.65C18.38 65.65 12.95 66.3 12.19 68.58C11.43 70.86 13.82 74.22 20.11 78.46C25.27 81.93 42.95 90.28 49.96 94.63C57.99 99.62 64.79 106.59 65.92 106.68C67.33 106.79 77.12 96.39 90.67 87.25C103.55 78.55 112.38 76.4 115.53 69.99C117.22 66.55 113.14 64.56 113.14 64.56L60.82 44.7L18.38 65.65Z" fill="#FFE869"/>
<path d="M66.57 100.82C68.19 100.64 76.66 92.46 86.65 86.17C96.64 79.88 111.4 73.14 113.57 69.35C115.74 65.56 110.53 63.05 110.53 63.05L49.74 52.85L14.14 66.85C14.14 66.85 12.19 67.5 13.49 69.13C14.79 70.76 16.85 73.47 21.41 76.29C26.95 79.72 41.17 85.41 50.17 90.29C59.19 95.17 64.62 101.03 66.57 100.82Z" fill="#FFBE01"/>
<path d="M19.04 68.47L20.93 73.53C20.93 73.53 34.53 87.24 61.58 87.78C88.5 88.32 103.59 75.51 103.59 75.51L107.03 66.87L19.04 68.47V68.47Z" fill="#F4482B"/>
<path d="M54.5 76.83L52.37 80.24C52.37 80.24 56.92 82.97 58.23 83.44C60.11 84.11 61.96 83.87 64.73 83.01C67.5 82.16 79 77.58 79 77.58C79 77.58 88.51 77.72 94.48 77.83C99.77 77.93 105.07 76.03 107.84 72.83C110.61 69.63 114.91 62.77 114.91 62.77C114.91 62.77 117.15 62.24 118.64 60.53C120.13 58.82 120.24 57.33 120.24 57.33C120.24 57.33 119.81 54.45 118.22 53.71C116.62 52.96 45.36 48.6 45.36 48.6L16.81 50.73L12 60.64L27.87 74.17L50.24 75.45L54.5 76.83V76.83Z" fill="#A6B732"/>
<path d="M13.49 51.91C11.88 51.18 10.19 51.27 9.44 53.4C8.69 55.53 8.92 56.47 8.92 56.47C8.92 56.47 6.73 56.93 6.46 59.68C6.14 62.98 9.76 64.15 9.76 64.15C9.76 64.15 9.93 65.43 11.36 66.71C12.99 68.17 14.62 68.02 14.62 68.02C14.62 68.02 18.92 72.25 21.8 73.95C24.68 75.65 28.83 76.83 32.99 76.72C37.15 76.61 38.53 74.7 41.62 75.76C44.71 76.82 52.9 81.13 56.2 81.2C61.42 81.31 72.71 73.21 75.27 73.32C77.83 73.43 89.44 75.24 95.62 75.24C101.8 75.24 104.04 73.43 105.42 71.62C106.8 69.81 109.15 65.23 108.4 65.12C107.65 65.01 102.75 69.06 99.24 68.74C95.72 68.42 92.64 66.4 88.27 66.4C83.9 66.4 62.6 69.17 61.21 69.81C59.82 70.45 53.86 75.03 52.69 74.82C51.52 74.61 47.47 71.2 46.09 70.45C44.71 69.7 30.18 69.22 28.09 69.6C26.59 69.87 24.47 70.24 24.47 70.24C24.47 70.24 24.68 66.94 22.87 65.02C21.06 63.1 15.09 59.8 15.09 59.8C15.09 59.8 15.83 52.97 13.49 51.91V51.91ZM107.97 57.66C107.97 57.66 114.47 57.66 116.28 57.55C118.09 57.44 120.22 57.34 120.22 57.34C120.22 57.34 119.6 54.39 118.66 52.82C116.74 49.6 112.12 48.71 112.12 48.71L107.97 57.66V57.66Z" fill="#C2DD1F"/>
<path d="M12 47.97L11.29 51.11C11.29 51.11 21.12 68.52 65.3 69.18C91.16 69.57 106.02 61.72 112.58 55.3C116.51 51.45 116.64 47.71 116.64 47.71L12 47.97Z" fill="#DE8010"/>
<path d="M9.76 39.31C9.2 48.01 11.32 51.13 11.32 51.13C11.32 51.13 25.94 64.37 63.28 64.98C101.55 65.6 113.99 52.91 116.17 49.21C117.56 46.86 118.67 42.25 117.79 35.53C116.33 24.43 103.55 3.37 63.1 3.53C22.65 3.69 10.58 26.68 9.76 39.31Z" fill="url(#paint0_radial_1_2)"/>
<path d="M48.19 14.36C48.5 16.06 40.83 21.72 39.72 16.29C38.68 11.18 47.9 12.79 48.19 14.36ZM50.93 25.01C51.33 26.06 59.19 27.57 58.35 23.14C57.47 18.53 50.11 22.85 50.93 25.01ZM57.82 12.85C58.02 14.36 67.18 16.12 66.99 11.86C66.76 6.6 57.59 11.1 57.82 12.85V12.85ZM42.71 28.51C42.76 28.85 40.51 30.62 38.21 31.31C36.19 31.92 34.12 31.66 33.89 29.15C33.67 26.73 35.39 25.85 37.45 26.06C39.82 26.29 42.61 27.86 42.71 28.51ZM61.74 35.58C61.36 33.99 52.75 31.78 53.33 36.81C53.92 41.82 62.15 37.27 61.74 35.58V35.58ZM69.8 24.13C69.38 23.64 67.41 23.73 65.01 24.36C63.28 24.82 62 26.77 63.2 28.62C64.6 30.78 66.95 29.87 68.45 28.04C69.67 26.56 70.27 24.68 69.8 24.13V24.13ZM79.02 12.44C78.75 12.15 76.78 11.95 75.17 12.73C73.55 13.51 72.15 15.37 73.65 17.11C75.17 18.86 77.43 17.85 78.5 16C79.35 14.51 79.43 12.88 79.02 12.44ZM85.2 27.66C84.94 26.03 77.7 23.13 77.75 27.57C77.8 32.12 85.43 29.13 85.2 27.66ZM95.21 19.62C94.97 18.37 85.76 17.36 87.33 22.01C88.96 26.86 95.5 21.14 95.21 19.62ZM82.53 35.98C82.59 34.58 75.58 31.37 75.06 35.57C74.54 39.77 82.45 37.8 82.53 35.98Z" fill="#FDEAC8"/>
<defs>
<radialGradient id="paint0_radial_1_2" cx="0" cy="0" r="1" gradientUnits="userSpaceOnUse" gradientTransform="translate(63.4646 15.5229) rotate(89.3583) scale(44.0404 76.7392)">
<stop offset="0.517" stop-color="#DF8016"/>
<stop offset="0.643" stop-color="#E58C21"/>
<stop offset="1" stop-color="#F5AC3C"/>
</radialGradient>
</defs>
</svg>
