<svg width="31" height="31" viewBox="0 0 31 31" fill="none" xmlns="http://www.w3.org/2000/svg">
<path d="M0.125 15.875C0.125 24.1585 6.84152 30.875 15.125 30.875C23.4085 30.875 30.125 24.1585 30.125 15.875C30.125 7.59152 23.4085 0.874999 15.125 0.874999C6.84152 0.874999 0.125 7.59152 0.125 15.875ZM27.5804 15.875C27.5804 22.7522 22.0022 28.3304 15.125 28.3304C8.24777 28.3304 2.66964 22.7522 2.66964 15.875C2.66964 8.99777 8.24777 3.41964 15.125 3.41964C22.0022 3.41964 27.5804 8.99777 27.5804 15.875ZM9.76786 18.8214V20.4286C9.76786 20.5759 9.88839 20.6964 10.0357 20.6964H20.2143C20.3616 20.6964 20.4821 20.5759 20.4821 20.4286V18.8214C20.4821 18.6741 20.3616 18.5536 20.2143 18.5536H10.0357C9.88839 18.5536 9.76786 18.6741 9.76786 18.8214ZM9.76786 11.3214V12.9286C9.76786 13.0759 9.88839 13.1964 10.0357 13.1964H20.2143C20.3616 13.1964 20.4821 13.0759 20.4821 12.9286V11.3214C20.4821 11.1741 20.3616 11.0536 20.2143 11.0536H10.0357C9.88839 11.0536 9.76786 11.1741 9.76786 11.3214Z" fill="white"/>
<path d="M20.501 15.1893H9.749C9.68866 15.1893 9.63929 15.2921 9.63929 15.4178V17.0178C9.63929 17.1436 9.68866 17.2464 9.749 17.2464H20.501C20.5613 17.2464 20.6107 17.1436 20.6107 17.0178V15.4178C20.6107 15.2921 20.5613 15.1893 20.501 15.1893Z" fill="white"/>
</svg>
