<svg width="37" height="40" viewBox="0 0 37 40" fill="none" xmlns="http://www.w3.org/2000/svg">
<path d="M18.5 0C8.28371 0 0 8.95536 0 20C0 31.0446 8.28371 40 18.5 40C28.7163 40 37 31.0446 37 20C37 8.95536 28.7163 0 18.5 0ZM27.3907 15.0759C27.4031 15.2857 27.4031 15.5045 27.4031 15.7188C27.4031 22.2723 22.7864 29.8214 14.3499 29.8214C11.7483 29.8214 9.33672 29.0045 7.30502 27.5982C7.67667 27.6429 8.03181 27.6607 8.41172 27.6607C10.559 27.6607 12.5329 26.875 14.1062 25.5446C12.0911 25.5 10.398 24.0714 9.81987 22.1071C10.526 22.2188 11.1619 22.2188 11.8887 22.0179C10.8511 21.79 9.91846 21.1807 9.24924 20.2937C8.58003 19.4066 8.21551 18.2965 8.21763 17.1518V17.0893C8.82466 17.4598 9.53906 17.6875 10.2865 17.7188C9.65817 17.266 9.14287 16.6527 8.78631 15.9332C8.42974 15.2136 8.24292 14.4101 8.24241 13.5938C8.24241 12.6696 8.4654 11.8259 8.86596 11.0938C10.0177 12.6265 11.4548 13.8801 13.0841 14.7731C14.7133 15.666 16.4981 16.1784 18.3224 16.2768C17.6741 12.9063 20.0031 10.1786 22.8029 10.1786C24.1243 10.1786 25.3136 10.7768 26.1519 11.7411C27.1884 11.5313 28.1795 11.1116 29.0632 10.5491C28.7204 11.6964 28.0019 12.6652 27.048 13.2768C27.973 13.1696 28.865 12.8929 29.6908 12.5045C29.0673 13.4955 28.2868 14.375 27.3907 15.0759V15.0759Z" fill="#413F3F"/>
</svg>
